<?xml version="1.0" standalone="no"?>
<!DOCTYPE svg PUBLIC "-//W3C//DTD SVG 20010904//EN"
 "http://www.w3.org/TR/2001/REC-SVG-20010904/DTD/svg10.dtd">
<svg version="1.0" xmlns="http://www.w3.org/2000/svg"
 width="1411.000000pt" height="1411.000000pt" viewBox="0 0 1411.000000 1411.000000"
 preserveAspectRatio="xMidYMid meet">
<metadata>
Created by potrace 1.14, written by Peter Selinger 2001-2017
</metadata>
<g transform="translate(0.000000,1411.000000) scale(0.100000,-0.100000)"
fill="#000000" stroke="none">
<path d="M5996 13473 c-1 -1 -28 -4 -61 -7 -33 -2 -62 -5 -65 -6 -3 -2 -7 -2
-10 -2 -4 0 -73 -8 -210 -25 -25 -3 -51 -5 -57 -6 -7 0 -13 -3 -13 -7 0 -4
-10 -5 -22 -3 -13 2 -72 -8 -133 -22 -60 -14 -121 -28 -135 -31 -70 -13 -80
-16 -80 -25 0 -6 -4 -8 -9 -4 -12 7 -101 -14 -118 -28 -7 -5 -13 -6 -13 -3 0
4 -10 1 -22 -6 -13 -7 -27 -13 -33 -13 -32 -3 -86 -19 -91 -26 -3 -5 -14 -9
-25 -9 -10 0 -19 -5 -19 -11 0 -5 -4 -7 -10 -4 -5 3 -25 -1 -43 -10 -18 -8
-44 -17 -57 -20 -13 -2 -26 -8 -29 -12 -3 -5 -13 -9 -21 -11 -8 -2 -28 -10
-45 -17 -16 -7 -56 -25 -87 -38 -32 -14 -58 -24 -58 -21 0 3 -7 -2 -16 -10 -8
-9 -20 -14 -25 -11 -5 4 -9 1 -9 -4 0 -6 -3 -10 -7 -10 -19 4 -92 -35 -86 -45
3 -6 3 -8 -2 -4 -8 8 -126 -48 -137 -66 -4 -6 -8 -7 -8 -3 0 5 -14 -1 -31 -13
-16 -12 -33 -20 -36 -17 -3 3 -14 -2 -24 -12 -11 -10 -32 -24 -47 -32 -15 -8
-29 -16 -32 -19 -3 -3 -18 -12 -34 -20 -56 -29 -66 -35 -66 -42 0 -5 -6 -8
-13 -8 -8 0 -27 -11 -42 -24 -16 -14 -34 -22 -39 -19 -6 3 -8 3 -4 -2 4 -4
-19 -25 -51 -45 -32 -21 -62 -43 -65 -49 -4 -6 -12 -9 -17 -6 -5 4 -9 1 -9 -4
0 -6 -7 -11 -16 -11 -8 0 -13 -4 -10 -9 3 -4 -6 -13 -19 -19 -14 -7 -25 -16
-25 -22 0 -6 -4 -9 -9 -5 -6 3 -15 -4 -21 -15 -6 -11 -15 -18 -20 -15 -5 3
-12 -1 -17 -8 -4 -7 -28 -29 -53 -48 -25 -18 -49 -40 -53 -47 -5 -7 -12 -10
-17 -7 -5 3 -15 -4 -23 -15 -7 -11 -17 -17 -20 -13 -4 3 -7 -1 -7 -10 0 -9 -4
-17 -8 -17 -5 0 -22 -13 -38 -30 -16 -16 -34 -30 -41 -30 -6 0 -15 -9 -18 -20
-3 -11 -10 -20 -15 -20 -5 0 -27 -18 -49 -39 -23 -22 -41 -37 -41 -34 0 3 -16
-14 -35 -37 -19 -23 -35 -38 -35 -33 0 4 -8 -4 -18 -20 -10 -15 -21 -25 -24
-21 -4 3 -9 -4 -13 -15 -3 -12 -11 -19 -16 -16 -5 4 -9 2 -9 -3 0 -5 -11 -21
-25 -36 -14 -15 -25 -24 -25 -20 0 4 -10 -6 -22 -22 -12 -16 -28 -33 -35 -37
-8 -5 -11 -12 -8 -17 3 -5 -4 -11 -15 -15 -11 -4 -18 -11 -15 -16 4 -5 1 -9
-5 -9 -6 0 -15 -11 -22 -25 -6 -13 -15 -22 -19 -19 -5 3 -9 0 -9 -6 0 -6 -14
-24 -30 -40 -17 -17 -27 -30 -23 -30 4 0 -3 -11 -17 -24 -14 -13 -34 -36 -45
-51 -11 -16 -26 -34 -32 -41 -7 -7 -13 -17 -13 -23 0 -6 -4 -11 -10 -11 -5 0
-10 -7 -10 -15 0 -7 -8 -19 -17 -24 -10 -6 -15 -11 -11 -11 5 0 0 -8 -10 -18
-9 -10 -24 -29 -32 -42 -8 -12 -25 -35 -37 -50 -13 -15 -23 -31 -23 -34 0 -6
-38 -64 -50 -76 -3 -3 -14 -21 -24 -40 -11 -19 -22 -37 -25 -40 -11 -10 -71
-111 -71 -121 0 -5 -4 -9 -10 -9 -5 0 -10 -9 -10 -20 0 -11 -3 -20 -8 -20 -4
0 -19 -21 -32 -47 -14 -27 -28 -50 -33 -51 -4 -2 -5 -8 -1 -13 3 -5 0 -9 -5
-9 -6 0 -11 -7 -11 -15 0 -8 -4 -15 -10 -15 -5 0 -10 -4 -10 -9 0 -4 -21 -53
-47 -107 -26 -55 -45 -101 -44 -103 2 -2 -1 -7 -6 -10 -17 -12 -126 -277 -126
-307 0 -8 -3 -14 -6 -14 -7 0 -34 -83 -36 -110 -1 -8 -7 -25 -13 -37 -7 -13
-11 -23 -8 -23 2 0 -3 -21 -11 -47 -8 -27 -17 -59 -19 -73 -3 -14 -12 -45 -20
-70 -8 -24 -16 -61 -18 -80 -1 -20 -6 -42 -10 -49 -5 -7 -6 -15 -3 -17 3 -3 1
-21 -5 -41 -11 -41 -15 -62 -24 -117 -3 -22 -7 -43 -9 -46 -1 -3 -6 -39 -10
-80 -4 -41 -13 -118 -20 -170 -7 -52 -13 -140 -14 -195 -1 -55 -4 -101 -6
-104 -3 -2 0 -10 6 -18 6 -7 8 -13 3 -13 -5 0 -9 -61 -9 -135 0 -74 3 -135 8
-135 5 0 5 -6 -1 -13 -6 -7 -7 -19 -3 -26 5 -7 6 -27 2 -45 -8 -40 -7 -58 2
-73 5 -8 3 -13 -3 -13 -6 0 -9 -4 -5 -10 3 -5 8 -65 10 -132 3 -68 8 -124 12
-126 5 -1 8 -31 8 -67 -1 -36 2 -65 5 -65 3 0 6 -24 7 -53 1 -51 3 -69 24
-192 6 -33 13 -73 15 -90 7 -53 12 -80 14 -80 1 0 3 -13 5 -30 2 -16 18 -95
35 -175 17 -80 34 -156 36 -170 3 -14 17 -72 31 -130 14 -58 27 -116 30 -130
8 -41 11 -55 13 -55 2 0 13 -45 27 -115 9 -43 8 -42 16 -60 3 -8 20 -76 38
-150 17 -74 38 -156 46 -181 21 -68 22 -83 3 -96 -15 -10 -17 -26 -15 -90 4
-91 10 -148 25 -218 16 -79 17 -104 3 -109 -7 -3 -13 -1 -13 5 0 6 -4 8 -8 5
-5 -3 -37 10 -73 27 -44 22 -77 32 -104 31 -63 -2 -67 -3 -60 -14 3 -5 0 -7
-8 -4 -8 3 -27 -6 -42 -20 -15 -14 -31 -26 -35 -28 -5 -2 -10 -9 -12 -17 -2
-7 -13 -24 -24 -38 -19 -20 -38 -78 -34 -99 1 -4 -3 -10 -9 -13 -23 -15 -33
-222 -16 -347 5 -33 8 -62 7 -66 -1 -5 3 -8 9 -8 5 0 8 -4 5 -9 -3 -5 1 -32
10 -62 9 -29 18 -61 20 -72 2 -11 11 -45 20 -76 9 -31 17 -60 19 -66 2 -10 4
-16 21 -60 4 -11 8 -24 9 -30 2 -5 10 -34 18 -62 9 -29 13 -53 9 -53 -4 0 -1
-4 6 -8 7 -5 15 -19 17 -32 2 -13 8 -26 13 -29 4 -3 7 -13 7 -21 -1 -8 2 -20
7 -26 4 -6 9 -19 11 -30 2 -10 11 -36 20 -58 9 -21 17 -42 17 -46 0 -4 7 -20
14 -36 8 -15 13 -31 10 -36 -3 -4 0 -8 5 -8 6 0 11 -8 11 -18 0 -10 5 -23 10
-28 6 -6 12 -19 14 -30 4 -20 43 -118 73 -184 9 -19 16 -41 16 -47 0 -7 4 -13
9 -13 5 0 6 -4 3 -10 -3 -5 -1 -10 4 -10 6 0 10 -3 9 -7 -1 -5 5 -21 12 -38 7
-16 14 -33 14 -37 1 -3 4 -10 8 -14 5 -4 8 -16 8 -26 0 -10 5 -18 10 -18 6 0
10 -7 10 -15 0 -8 4 -23 10 -33 8 -14 40 -87 45 -102 17 -52 119 -250 129
-250 5 0 7 -3 3 -6 -3 -4 -1 -12 6 -20 30 -33 35 -42 30 -48 -4 -3 -1 -6 5 -6
7 0 12 -7 12 -15 0 -8 3 -15 8 -15 4 0 20 -19 35 -43 16 -23 44 -53 62 -67 18
-14 31 -28 28 -32 -2 -5 3 -8 11 -8 9 0 16 -7 16 -16 0 -8 5 -12 10 -9 6 3 10
2 10 -3 0 -10 64 -42 85 -42 8 0 15 -4 15 -8 0 -11 82 -9 99 2 10 7 12 6 6 -3
-6 -10 -2 -10 16 0 13 7 27 12 31 11 5 -1 8 2 8 7 0 7 27 20 53 25 4 0 11 6
15 11 4 6 14 10 22 10 8 0 18 3 21 9 7 9 59 -65 59 -84 0 -5 4 -10 9 -10 5 0
13 -10 17 -22 4 -13 9 -25 13 -28 3 -3 17 -27 31 -55 39 -79 112 -195 122
-195 5 0 6 -4 3 -10 -3 -5 -1 -10 6 -10 7 0 10 -3 6 -6 -3 -4 -1 -12 6 -20 29
-32 37 -44 37 -53 0 -5 12 -23 26 -40 14 -17 23 -31 19 -31 -3 0 3 -10 15 -22
11 -12 20 -28 20 -35 0 -7 5 -13 10 -13 6 0 10 -7 10 -15 0 -8 5 -15 10 -15 6
0 10 -6 10 -13 0 -7 9 -19 20 -27 11 -8 20 -19 20 -25 0 -5 14 -24 30 -42 17
-18 30 -35 30 -39 0 -6 51 -74 82 -108 10 -10 15 -23 12 -28 -3 -4 2 -8 11 -8
9 0 13 -5 10 -10 -3 -6 0 -13 8 -16 8 -3 23 -21 33 -40 10 -19 22 -34 27 -34
5 0 15 -7 23 -15 9 -8 12 -15 9 -15 -4 0 8 -16 27 -35 18 -19 49 -53 68 -75
53 -64 151 -160 161 -160 5 0 9 -4 9 -10 0 -11 59 -70 71 -70 4 0 11 -9 14
-20 3 -11 13 -20 21 -20 8 0 12 -4 9 -10 -3 -5 -3 -10 2 -10 4 0 29 -19 55
-43 48 -43 55 -49 148 -127 30 -25 62 -53 72 -62 10 -10 18 -16 18 -13 0 3 10
-3 22 -15 12 -11 26 -20 30 -20 5 0 6 -5 2 -12 -4 -6 -3 -8 3 -5 5 3 20 -4 34
-17 13 -12 32 -25 42 -29 9 -3 17 -11 17 -17 0 -5 6 -10 14 -10 8 0 16 -3 18
-7 2 -5 30 -26 63 -47 33 -22 79 -52 102 -68 23 -15 46 -28 52 -28 6 0 11 -4
11 -10 0 -5 7 -10 15 -10 7 0 18 -6 22 -14 4 -8 11 -15 16 -15 8 0 99 -52 107
-61 3 -3 28 -16 55 -30 28 -14 51 -28 53 -32 2 -4 10 -4 18 -1 8 3 14 1 14 -4
0 -11 125 -69 158 -73 4 -1 21 -10 37 -20 17 -10 32 -18 35 -17 8 1 104 -36
115 -45 5 -4 19 -8 32 -8 13 0 23 -3 23 -8 0 -7 56 -30 90 -36 8 -2 22 -6 30
-9 27 -11 144 -47 165 -50 11 -2 27 -7 35 -10 8 -3 29 -8 45 -11 17 -3 77 -15
135 -27 58 -11 116 -22 130 -24 86 -14 131 -22 170 -31 14 -3 36 -8 50 -10 14
-3 81 -16 150 -30 69 -14 139 -27 155 -30 33 -5 48 -8 85 -18 14 -3 43 -8 65
-11 22 -2 58 -7 80 -10 145 -23 228 -28 455 -29 233 -1 333 5 410 22 25 6 63
13 85 16 73 10 110 17 140 26 17 6 32 10 35 10 3 -1 31 8 63 19 31 11 57 17
57 13 0 -3 5 -1 12 6 7 7 18 12 24 12 7 0 23 4 36 9 13 5 26 9 31 10 4 0 34
14 66 30 32 17 61 27 65 24 3 -4 6 -1 6 6 0 7 4 10 9 6 5 -3 12 -1 16 5 4 6
11 8 16 5 5 -4 9 -1 9 4 0 6 3 10 8 9 9 -3 118 49 153 74 14 9 29 15 33 11 3
-3 6 -1 6 5 0 6 10 14 23 18 12 3 36 16 52 28 17 11 32 21 35 22 13 1 70 40
70 47 0 5 5 5 10 2 6 -3 10 -3 10 2 0 4 20 19 45 32 25 13 45 28 45 33 0 5 4
7 8 4 5 -3 20 6 35 20 14 13 31 24 37 24 5 0 10 3 10 8 0 4 23 21 50 37 27 17
50 34 50 38 0 5 5 5 10 2 6 -3 10 -2 10 2 0 5 20 22 45 37 25 16 45 33 45 37
0 5 6 9 13 9 7 0 23 9 35 20 12 11 26 20 32 20 5 0 10 4 10 8 0 5 12 15 28 23
15 8 29 16 32 20 3 3 48 34 100 70 52 35 97 67 100 70 3 3 28 21 55 39 28 19
52 37 53 42 2 4 8 8 14 8 10 0 79 49 90 65 4 5 8 7 8 3 0 -4 39 22 87 57 47
36 90 65 95 65 5 0 6 5 3 10 -3 6 1 10 9 10 9 0 16 5 16 10 0 6 7 10 15 10 8
0 15 4 15 8 0 4 21 24 48 45 67 52 127 109 124 119 -1 4 4 8 12 8 8 0 18 9 21
20 4 11 10 18 14 15 5 -2 19 9 31 25 12 16 27 27 33 23 6 -3 7 -1 3 5 -3 6 10
27 30 46 21 20 33 36 28 36 -5 0 2 7 14 16 12 8 22 22 22 30 0 8 3 13 8 11 4
-3 13 1 20 9 7 8 10 14 7 14 -3 0 3 8 13 19 9 10 32 36 49 57 18 22 42 50 53
63 11 13 20 28 20 33 0 5 5 6 10 3 6 -3 10 -3 10 2 0 4 10 20 23 35 12 14 31
39 42 54 11 16 28 36 38 46 9 10 15 18 12 18 -3 0 13 24 35 53 22 28 40 58 40
65 0 6 5 12 10 12 6 0 10 7 10 15 0 8 4 15 9 15 5 0 12 11 15 25 4 14 11 25
16 25 6 0 10 7 10 15 0 8 5 15 11 15 5 0 8 4 4 10 -3 5 3 18 13 28 11 11 25
33 33 50 8 18 18 32 22 32 5 0 5 5 2 10 -3 5 -1 10 5 10 6 0 9 4 6 9 -3 4 3
19 14 31 11 12 17 26 15 30 -3 5 -2 10 2 12 5 1 54 95 110 208 101 204 119
244 142 310 7 19 19 47 27 61 7 14 11 29 7 33 -3 3 0 6 7 6 7 0 11 3 8 6 -4 3
2 24 12 47 20 48 33 80 35 87 0 3 7 30 14 60 7 30 20 66 28 78 8 13 12 26 9
29 -3 3 1 21 9 40 8 19 14 37 13 41 -1 4 4 25 11 47 7 22 15 54 18 70 3 17 8
32 13 35 4 3 6 13 4 22 -1 10 3 18 9 18 5 0 8 3 5 6 -3 3 1 29 9 57 29 102 43
163 49 212 4 28 10 73 14 100 4 28 6 53 3 58 -2 4 1 7 7 7 6 0 9 4 6 8 -3 4
-1 26 4 48 5 21 11 59 15 84 3 25 8 56 10 70 3 14 7 54 10 90 2 36 6 83 9 105
2 22 8 78 11 125 8 102 15 115 60 131 19 7 35 16 35 20 0 3 35 12 78 18 42 7
85 14 95 16 9 2 17 -2 17 -8 0 -8 3 -8 8 -2 4 6 27 11 52 11 62 2 102 11 112
26 4 7 8 9 8 5 0 -14 90 76 90 90 0 8 4 12 9 8 8 -5 33 27 36 45 0 3 9 20 18
38 10 18 15 37 12 42 -3 6 -1 10 4 10 6 0 11 9 11 20 0 11 4 20 9 20 6 0 8 9
6 20 -2 11 0 20 4 20 8 0 10 9 13 60 1 17 5 30 9 30 4 0 8 8 7 18 0 9 3 40 6
67 17 135 19 187 18 405 -1 243 -7 424 -18 545 -3 39 -7 97 -9 130 -1 33 -3
60 -5 60 -1 0 -4 27 -6 60 -3 33 -6 71 -7 85 -1 14 -6 28 -12 32 -6 5 -5 8 3
8 8 0 10 5 5 13 -9 14 -11 23 -19 102 -3 32 -10 69 -14 81 -5 12 -6 24 -3 28
3 3 2 13 -2 23 -4 10 -9 25 -11 33 -4 19 -33 139 -39 163 -3 9 -7 27 -10 39
-3 13 -9 24 -15 26 -6 2 -8 7 -5 12 7 11 -33 120 -51 141 -8 9 -11 19 -7 22 3
4 0 7 -7 7 -7 0 -10 3 -7 6 3 4 1 16 -5 28 -7 11 -13 23 -13 26 -4 18 -30 60
-37 60 -4 0 -8 10 -8 23 0 18 -2 19 -10 7 -9 -13 -10 -13 -10 0 0 9 -8 23 -17
32 -10 9 -29 30 -43 47 -14 17 -31 31 -38 31 -7 0 -10 5 -7 10 4 6 3 10 -2 9
-13 -3 -45 13 -94 47 -34 24 -50 29 -62 22 -9 -5 -17 -5 -17 -1 0 5 -9 9 -20
10 -13 1 -18 -2 -13 -10 4 -7 0 -6 -10 2 -14 11 -18 11 -23 -3 -3 -9 -26 -25
-49 -35 -44 -20 -128 -99 -119 -113 3 -4 -7 -10 -22 -14 -26 -7 -96 -64 -78
-64 5 0 -6 -9 -23 -20 -36 -22 -63 -17 -63 10 0 11 -4 21 -9 24 -5 3 -11 16
-14 28 -3 13 -15 64 -26 113 -28 120 -28 120 -42 163 -7 20 -21 45 -32 55 -11
9 -16 17 -11 17 4 0 0 6 -9 13 -9 6 -18 23 -21 37 -7 39 -17 80 -37 150 -10
36 -20 76 -22 90 -2 14 -6 32 -10 40 -7 20 -17 59 -23 95 -4 17 -9 32 -12 35
-4 3 -8 14 -9 25 -1 19 -3 31 -20 100 -4 17 -7 32 -8 35 -1 3 -4 15 -9 28 -4
12 -9 32 -10 45 -2 12 -6 29 -9 37 -3 8 -15 56 -28 105 -12 50 -25 92 -28 95
-3 3 -7 18 -8 34 -1 16 -5 37 -9 45 -4 9 -9 27 -11 41 -2 14 -6 32 -10 40 -9
21 -9 20 -18 65 -4 22 -13 56 -21 75 -16 45 -56 178 -55 185 1 3 -5 21 -13 40
-8 19 -13 35 -10 35 2 0 -2 10 -10 23 -8 12 -15 27 -16 32 -3 28 -14 62 -26
75 -7 8 -13 18 -13 23 1 21 -14 67 -20 67 -4 0 -8 6 -9 13 -2 28 -23 87 -31
87 -4 0 -8 10 -8 22 -1 13 -7 24 -13 26 -5 2 -10 11 -10 21 0 9 -7 26 -15 37
-8 12 -11 24 -8 28 3 3 0 6 -7 6 -7 0 -10 3 -7 7 4 3 2 12 -4 20 -6 7 -8 13
-4 13 5 0 0 9 -10 20 -10 11 -15 20 -11 20 4 0 -2 13 -13 29 -12 16 -21 33
-21 39 0 13 -30 71 -40 77 -5 3 -11 19 -15 35 -4 17 -11 30 -16 30 -5 0 -9 4
-9 9 0 4 -19 41 -41 82 -41 73 -46 82 -85 146 -10 18 -23 33 -27 33 -5 0 -5 5
-2 10 3 6 1 10 -4 10 -6 0 -11 6 -11 14 0 8 -7 16 -15 20 -8 3 -15 12 -15 21
0 16 -36 74 -55 87 -7 5 -7 8 0 8 6 0 5 4 -1 8 -6 4 -25 28 -41 54 -17 26 -33
45 -37 41 -3 -3 -6 -1 -6 6 0 12 -55 91 -85 122 -8 9 -15 21 -15 27 0 7 -4 12
-10 12 -5 0 -10 7 -10 16 0 8 -4 12 -10 9 -5 -3 -10 0 -10 8 0 7 -27 42 -59
76 -33 34 -61 66 -62 69 -2 4 -15 20 -29 36 -14 16 -24 32 -23 37 2 5 -2 9 -8
9 -6 0 -17 7 -25 15 -9 8 -13 15 -9 15 4 0 0 7 -9 15 -8 8 -19 15 -25 15 -6 0
-11 6 -11 14 0 8 -9 18 -20 21 -11 4 -18 11 -15 16 4 5 2 9 -2 9 -5 0 -49 39
-99 88 -86 83 -171 157 -186 161 -4 1 -20 14 -36 29 -32 31 -52 47 -102 82
-19 13 -44 32 -54 42 -11 10 -26 18 -33 18 -7 0 -13 4 -13 8 0 4 -20 21 -45
36 -25 16 -50 35 -56 42 -6 8 -21 14 -32 14 -11 0 -17 3 -14 6 6 6 -28 29 -83
56 -14 7 -27 16 -30 20 -3 4 -17 12 -30 18 -14 6 -39 21 -56 33 -32 22 -95 60
-104 62 -16 4 -136 69 -141 77 -3 5 -10 10 -15 10 -5 0 -54 21 -109 48 -55 26
-122 58 -150 70 -27 12 -64 28 -82 36 -17 8 -33 14 -36 14 -2 0 -24 9 -48 19
-24 11 -47 19 -50 18 -3 -1 -13 4 -22 12 -10 7 -17 10 -17 6 0 -4 -7 -2 -15 5
-8 7 -15 10 -15 6 0 -4 -13 0 -29 8 -16 9 -31 12 -35 9 -3 -4 -6 0 -6 7 0 7
-3 10 -7 7 -3 -4 -17 0 -30 8 -13 9 -28 13 -32 10 -5 -3 -11 -1 -13 5 -1 5
-13 11 -25 13 -12 2 -26 6 -29 10 -4 4 -18 7 -31 7 -13 0 -23 4 -23 10 0 5 -7
7 -15 4 -8 -3 -20 -2 -27 2 -13 9 -27 13 -63 19 -11 2 -21 4 -22 5 -2 2 -6 3
-10 4 -5 2 -28 8 -53 16 -50 15 -55 16 -90 23 -14 3 -45 10 -70 17 -25 7 -58
14 -75 17 -16 2 -48 9 -70 15 -22 6 -49 12 -60 13 -11 2 -42 6 -70 10 -27 4
-54 11 -60 15 -5 3 -19 6 -30 6 -11 -1 -23 4 -27 9 -5 6 -8 5 -8 -3 0 -10 -6
-10 -27 1 -17 9 -36 11 -48 7 -11 -4 -22 -4 -25 1 -3 4 -37 10 -75 13 -131 11
-200 17 -240 22 -92 11 -469 13 -482 2 -8 -6 -13 -6 -13 -1 0 8 -96 13 -104 6z"/>
</g>
</svg>
